<?xml version="1.0" encoding="utf-8"?>
<svg xmlns="http://www.w3.org/2000/svg" version="1.2" viewBox="0 0 156 68">
	<title>A bar of musical notation depicts three quick notes.</title>
	<path d="m1.36498,12.75891l153.33604,0m-153.33604,8.68997l153.33604,0m-153.33604,8.68998l153.33604,0m-153.33604,8.68998l153.33604,0m-153.33604,8.68997l153.33604,0" fill="none" stroke="#000" stroke-linejoin="bevel" stroke-width="2.73"/>
	<path d="m152.47587,12.40241l0,35.7158" fill="none" stroke="#000" stroke-linejoin="bevel" stroke-width="4.46"/>
	<path d="m51.25895,52.559c0.21183,-0.0326 0.38563,-0.27701 0.38563,-0.48883l0,-2.04757c0,-0.3476 -0.24444,-0.4888 -0.55943,-0.4888l-1.146,0.2444l0,-5.18142l-0.9722,0l0,5.3878l-3.0958,0.63002l0,-4.90439l-0.97219,0l0,5.11079l-1.35781,0.27701c-0.20639,0.038 -0.38019,0.27697 -0.38019,0.48879l0,2.015c0,0.38019 0.277,0.48881 0.59201,0.48881l1.14599,-0.24441l0,5.7354l-1.35781,0.27699c-0.20639,0.0326 -0.38019,0.277 -0.38019,0.48883l0,2.01496c0,0.38021 0.277,0.48341 0.59201,0.48341l1.14599,-0.23897l0,5.17596l0.9722,0l0,-5.38779l3.09579,-0.62461l0,4.90442l0.97221,0l0,-5.11078l1.3198,-0.24444c0.21183,-0.038 0.38562,-0.27697 0.38562,-0.48879l0,-2.04759c0,-0.3476 -0.24443,-0.48881 -0.55942,-0.48881l-1.146,0.24441l0,-5.7354l1.3198,-0.2444m-5.3878,1.07538l3.09579,-0.62459l0,5.73539l-3.09579,0.66261l0,-5.77341"/>
	<path d="m53.81459,56.20879l17.02956,0m7.69273,0l17.02955,0" fill="none" stroke="#000" stroke-linejoin="bevel" stroke-width="3.97"/>
	<path d="m67.54195,54.81839l0,-24.67953m24.72229,24.67953l0,-24.67953m24.72263,15.98956l0,-28.67693" fill="none" stroke="#000" stroke-linejoin="bevel" stroke-width="2.48"/>
	<path d="m56.68202,57.6702c0,1.494 1.075,3.161 3.894,3.161c3.612,0 7.403,-2.955 7.403,-6.013c0,-2.053 -1.738,-3.199 -3.894,-3.199c-3.373,0 -7.403,2.851 -7.403,6.05m24.722,0c0,1.494 1.075,3.161 3.894,3.161c3.612,0 7.403,-2.955 7.403,-6.013c0,-2.053 -1.738,-3.199 -3.894,-3.199c-3.373,0 -7.403,2.851 -7.403,6.05m24.722,-8.69c0,1.494 1.075,3.161 3.894,3.161c3.612,0 7.403,-2.955 7.403,-6.013c0,-2.053 -1.738,-3.199 -3.894,-3.199c-3.373,0 -7.403,2.851 -7.403,6.05m-93.969,7.682c0,2.297 1.738,5.323 6.431,5.323c1.635,0 3.063,-0.418 4.312,-1.184c1.879,-1.32 2.363,-3.617 2.363,-5.806c0,-1.352 -0.206,-2.917 -0.554,-4.899c-0.103,-0.695 -0.315,-1.738 -0.521,-3.096c3.405,-1.113 5.942,-4.66 5.942,-8.239c0,-5.247 -3.72,-8.793 -8.793,-8.793c-0.348,-2.086 -0.695,-4.139 -0.972,-6.083c3.65,-3.862 6.186,-8.207 6.186,-13.73c0,-3.166 -0.972,-5.735 -1.532,-6.99c-0.831,-1.771 -1.841,-2.987 -2.466,-2.987c-0.244,0 -1.32,0.418 -2.466,1.771c-2.227,2.645 -2.851,7.093 -2.851,10.01c0,1.879 0.174,3.585 0.766,7.479c-0.038,0.033 -1.847,1.874 -2.574,2.466c-3.166,2.922 -7.544,7.158 -7.544,14.116c0,6.496 5.665,11.607 12.133,11.607c1.005,0 1.944,-0.103 2.743,-0.244c0.663,3.34 1.081,5.773 1.081,7.615c0,3.617 -1.879,5.529 -5.388,5.529c-0.836,0 -1.564,-0.174 -1.635,-0.174c-0.033,-0.038 -0.103,-0.071 -0.103,-0.103c0,-0.071 0.071,-0.109 0.174,-0.109c1.635,-0.277 3.264,-1.667 3.264,-3.889c0,-1.879 -1.423,-3.862 -4.03,-3.862c-2.433,0 -3.965,1.982 -3.965,4.274m7.267,-46.405c0.315,-1.39 1.912,-5.04 3.72,-5.04c0.521,0 1.352,1.667 1.352,4.101c0,3.617 -2.672,6.327 -5.073,8.69c-0.206,-1.39 -0.38,-2.743 -0.38,-4.204c0,-1.287 0.103,-2.471 0.38,-3.547m3.058,35.732c-0.695,0.141 -1.352,0.212 -2.015,0.212c-4.97,0 -9.211,-3.476 -9.211,-8.728c0,-4.236 2.987,-8.027 6.05,-10.672c0.587,-0.521 1.146,-1.005 1.667,-1.526c0.31,1.874 0.554,3.509 0.798,4.937c-3.166,0.94 -5.317,4.274 -5.317,7.544c0,2.433 1.912,5.768 4.693,5.768c0.277,0 0.592,-0.141 0.592,-0.451c0,-0.315 -0.348,-0.489 -0.766,-0.766c-1.358,-0.836 -2.124,-1.738 -2.124,-3.443c0,-2.118 1.602,-3.824 3.617,-4.307l2.015,11.433m4.937,-6.431c0,2.471 -1.01,5.008 -3.476,6.018c-0.728,-4.171 -1.667,-9.7 -1.912,-11.232c3.128,0 5.388,2.124 5.388,5.214"/>
	<path d="m66.24868,27.96636l27.13708,0l0,4.34499l-27.13708,0l0,-4.34499m0,6.51749l27.13708,0l0,4.34499l-27.13708,0l0,-4.34499" fill-rule="evenodd"/>
	<path d="m115.52202,21.0192l10.048,2.607l0,-4.345l-10.048,-2.607l0,4.345m6.244,30.845c0,0.972 0.766,1.738 1.738,1.738c0.972,0 1.738,-0.766 1.738,-1.738c0,-0.972 -0.766,-1.738 -1.738,-1.738c-0.972,0 -1.738,0.766 -1.738,1.738"/>
</svg>
