<?xml version="1.0" encoding="utf-8"?>
<svg xmlns="http://www.w3.org/2000/svg" xmlns:svg="http://www.w3.org/2000/svg" version="1.2" viewBox="0 0 450 234">
	<title>A bar of musical notation depicts three quick notes.</title>
	<path d="M12.4 62 450 62M12.4 86.8 450 86.8M12.4 111.6 450 111.6M12.4 136.4 450 136.4M12.4 161.2 450 161.2" fill="none" stroke="#000" stroke-linejoin="bevel" stroke-width="2.73"/>
	<path d="M447.768 60.636 447.768 162.564" fill="none" stroke="#000" stroke-linejoin="bevel" stroke-width="4.46"/>
	<path d="m154.79054,175.58399c0.60453,-0.09305 1.10053,-0.79053 1.10053,-1.39505l0,-5.84348c0,-0.992 -0.69758,-1.39495 -1.59653,-1.39495l-3.27053,0.69748l0,-14.78706l-2.77453,0l0,15.37602l-8.83498,1.798l0,-13.99644l-2.77451,0l0,14.58549l-3.875,0.79053c-0.589,0.10843 -1.085,0.79043 -1.085,1.39495l0,5.75053c0,1.085 0.79051,1.395 1.68951,1.395l3.2705,-0.69751l0,16.36803l-3.875,0.7905c-0.589,0.09305 -1.085,0.79053 -1.085,1.39505l0,5.75043c0,1.08505 0.79051,1.37958 1.68951,1.37958l3.2705,-0.682l0,14.77149l2.77451,0l0,-15.37602l8.83498,-1.78253l0,13.99654l2.77453,0l0,-14.58549l3.76653,-0.69758c0.60453,-0.10843 1.10053,-0.79043 1.10053,-1.39495l0,-5.84353c0,-0.992 -0.69758,-1.395 -1.59653,-1.395l-3.27053,0.69751l0,-16.36803l3.76653,-0.6975m-15.37604,3.069l8.83498,-1.78251l0,16.36803l-8.83498,1.891l0,-16.47652"/>
	<path d="M162.084 186 210.684 186M232.638 186 281.238 186" fill="none" stroke="#000" stroke-linejoin="bevel" stroke-width="3.97"/>
	<path d="M201.26 182.032 201.26 111.6M271.814 182.032 271.814 111.6M342.369 157.232 342.369 75.392" fill="none" stroke="#000" stroke-linejoin="bevel" stroke-width="2.48"/>
	<path d="M170.268 190.17c0 4.263 3.069 9.021 11.113 9.021 10.308 0 21.127-8.432 21.127-17.159 0-5.859-4.96-9.129-11.113-9.129-9.625 0-21.127 8.137-21.127 17.267M240.822 190.17c0 4.263 3.069 9.021 11.113 9.021 10.308 0 21.127-8.432 21.127-17.159 0-5.859-4.96-9.129-11.113-9.129-9.625 0-21.127 8.137-21.127 17.267M311.376 165.37c0 4.263 3.069 9.021 11.113 9.021 10.308 0 21.127-8.432 21.127-17.159 0-5.859-4.96-9.129-11.113-9.129-9.625 0-21.127 8.137-21.127 17.267"/>
	<path d="m43.19854,187.28657c0,6.55653 4.96,15.19002 18.35202,15.19002c4.66548,0 8.74201,-1.19348 12.30696,-3.37905c5.36305,-3.76643 6.74253,-10.32296 6.74253,-16.56949c0,-3.85948 -0.58895,-8.32348 -1.58095,-13.98096c-0.29453,-1.984 -0.89905,-4.96 -1.488,-8.83506c9.71844,-3.17748 16.95697,-13.29896 16.95697,-23.51353c0,-14.97303 -10.61749,-25.09452 -25.09455,-25.09452c-0.992,-5.95201 -1.984,-11.81106 -2.77443,-17.36002c10.41601,-11.02054 17.65444,-23.42055 17.65444,-39.18404c0,-9.03653 -2.77443,-16.36802 -4.37095,-19.94815c-2.37148,-5.05325 -5.25453,-8.52526 -7.03706,-8.52526c-0.69748,0 -3.76643,1.19338 -7.03696,5.05325c-6.35506,7.54814 -8.13748,20.24267 -8.13748,28.56616c0,5.36296 0.496,10.23001 2.18548,21.3435c-0.10852,0.09305 -5.27001,5.34748 -7.34706,7.03706c-9.03643,8.33896 -21.5295,20.42897 -21.5295,40.28452c0,18.53807 16.16654,33.12356 34.62708,33.12356c2.86748,0 5.54896,-0.29453 7.82748,-0.69748c1.89095,9.53244 3.08453,16.47644 3.08453,21.73097c0,10.32306 -5.36305,15.77907 -15.37602,15.77907c-2.38705,0 -4.464,-0.496 -4.66558,-0.496c-0.09295,-0.10852 -0.29443,-0.20157 -0.29443,-0.29453c0,-0.20148 0.20148,-0.31 0.496,-0.31c4.66548,-0.79053 9.31548,-4.75853 9.31548,-11.09801c0,-5.36305 -4.06105,-11.02054 -11.50106,-11.02054c-6.94401,0 -11.31496,5.65748 -11.31496,12.19854m20.73897,-132.43213c0.89905,-3.968 5.45601,-14.38401 10.61759,-14.38401c1.488,0 3.85948,4.75843 3.85948,11.70244c0,10.32306 -7.62601,18.05759 -14.47706,24.80002c-0.58895,-3.968 -1.08495,-7.82748 -1.08495,-11.99696c0,-3.67348 0.29453,-7.05253 1.08495,-10.12149m8.72653,101.97463c-1.984,0.40295 -3.85948,0.60443 -5.75053,0.60443c-14.18244,0 -26.288,-9.92001 -26.288,-24.9085c0,-12.09006 8.52503,-22.90902 17.26704,-30.45756c1.674,-1.488 3.27053,-2.86748 4.75853,-4.35548c0.88348,5.34748 1.58095,10.01296 2.27843,14.08949c-9.03643,2.68148 -15.17444,12.19854 -15.17444,21.52955c0,6.94401 5.45601,16.46102 13.39201,16.46102c0.79043,0 1.68948,-0.40295 1.68948,-1.28653c0,-0.89895 -0.992,-1.39495 -2.18548,-2.18548c-3.87505,-2.387 -6.06053,-4.96 -6.06053,-9.82701c0,-6.04501 4.57253,-10.91206 10.32296,-12.29154l5.75053,32.62761m14.08949,-18.35207c0,7.05251 -2.88295,14.29101 -9.92001,17.17407c-2.07695,-11.90406 -4.75843,-27.68308 -5.45601,-32.05413c8.92801,0 15.37602,6.06055 15.37602,14.88006"/>
	<path d="m200.02 105.4 73.034 0 0 12.4-73.034 0 0-12.4M200.02 124l73.034 0 0 12.4-73.034 0 0-12.4" fill-rule="evenodd"/>
	<path d="m341.129,86.80011l28.67508,7.44001l0,-12.40001l-28.67508,-7.44001l0,12.40001"/>
	<path d="m356.009,173.60001c0,2.77451 2.18551,4.96 4.96,4.96c2.77451,0 4.96,-2.1855 4.96,-4.96c0,-2.77451 -2.1855,-4.96 -4.96,-4.96c-2.7745,0 -4.96,2.1855 -4.96,4.96"/>
</svg>
