<?xml version="1.0" encoding="utf-8"?>
<svg xmlns="http://www.w3.org/2000/svg" version="1.2" viewBox="0 0 394 68">
	<title>Four bars of musical notation in 3/8 time depict a simple melody.</title>
	<path class="StaffLines" d="m1.365,13.91963l390.82992,0m-390.82992,9.48023l390.82992,0m-390.82992,9.48022l390.82992,0m-390.82992,9.48023l390.82992,0m-390.82992,9.48022l390.82992,0" fill="none" stroke="#000" stroke-linejoin="bevel" stroke-width="2.73"/>
	<path class="BarLine" d="m236.35913,13.39822l0,38.96373m-89.91725,-38.96373l0,38.96373m173.78744,-38.96373l0,38.96373" fill="none" stroke="#000" stroke-linejoin="bevel" stroke-width="4.46"/>
	<path class="Accidental" d="m247.92501,31.74246c-1.89605,0 -2.99812,1.17317 -3.18773,1.40406l0.15406,-12.17635c0,-0.30199 -0.22516,-0.52715 -0.53327,-0.52715l-0.45031,0c-0.3081,0 -0.53326,0.22516 -0.53326,0.52715l0.18961,22.79421c0,0.30237 0.22515,0.52752 0.53326,0.52752c0.0711,0 0.22515,-0.0356 0.30237,-0.0711c3.25883,-1.63534 6.67171,-4.74011 6.67171,-8.6507c0,-1.96715 -0.90636,-3.82764 -3.14644,-3.82764m-3.30011,10.69468l0.11277,-7.39457c0.0772,-0.34366 0.64603,-1.44 2.16286,-1.44c1.3689,0 1.48129,1.28594 1.48129,2.08565c0,3.37159 -1.25001,4.77566 -3.75654,6.74854m87.16994,3.52603c-1.8961,0 -2.9982,1.17318 -3.1878,1.40407l0.1541,-12.17635c0,-0.302 -0.2252,-0.52715 -0.5333,-0.52715l-0.4503,0c-0.3081,0 -0.5332,0.22515 -0.5332,0.52715l0.1896,22.7942c0,0.30238 0.2251,0.52753 0.5332,0.52753c0.071,0 0.2252,-0.0356 0.3024,-0.0711c3.2588,-1.63534 6.6717,-4.74011 6.6717,-8.65071c0,-1.96714 -0.9064,-3.82764 -3.1464,-3.82764m-3.3001,10.69469l0.1127,-7.39457c0.077,-0.34366 0.6461,-1.44 2.1629,-1.44c1.3689,0 1.4813,1.28594 1.4813,2.08564c0,3.3716 -1.25,4.77567 -3.7566,6.74855"/>
	<path class="LedgerLine" d="m110.64829,61.32076l18.57819,0" fill="none" stroke="#000" stroke-linejoin="bevel" stroke-width="3.97"/>
	<path class="Stem" d="m348.26992,50.47187l0,-26.54463m-223.53494,36.02485l0,-21.80452m173.78743,7.58418l0,-26.54463m-127.94442,21.80452l0,-26.54463m110.88308,26.54463l0,-26.54463m-83.87056,26.54463l0,-26.73423m66.80921,21.99412l0,-24.17457m-49.74748,28.91468l0,-26.54463" fill="none" stroke="#000" stroke-linejoin="bevel" stroke-width="2.48"/>
	<path class="Note" d="m253.44112,39.21425c0,1.62922 1.17318,3.44843 4.24814,3.44843c3.94041,0 8.07616,-3.22328 8.07616,-6.55932c0,-2.2397 -1.89605,-3.48972 -4.24814,-3.48972c-3.67932,0 -8.07616,3.11051 -8.07616,6.60061m-49.74748,4.73973c0,1.62922 1.17318,3.44843 4.24814,3.44843c3.94041,0 8.07616,-3.22327 8.07616,-6.55932c0,-2.2397 -1.89605,-3.48972 -4.24814,-3.48972c-3.67932,0 -8.07616,3.11051 -8.07616,6.60061m83.87056,4.74049c0,1.62923 1.17318,3.44844 4.24813,3.44844c3.94041,0 8.07616,-3.22328 8.07616,-6.55933c0,-2.2397 -1.89604,-3.48971 -4.24813,-3.48971c-3.67932,0 -8.07616,3.11051 -8.07616,6.6006m-173.78743,14.22034c0,1.62922 1.17318,3.44843 4.24813,3.44843c3.94041,0 8.07616,-3.22327 8.07616,-6.55932c0,-2.2397 -1.89604,-3.48971 -4.24813,-3.48971c-3.67933,0 -8.07616,3.1105 -8.07616,6.6006m45.84262,-18.96083c0,1.62922 1.17318,3.44843 4.24813,3.44843c3.94041,0 8.07616,-3.22327 8.07616,-6.55932c0,-2.2397 -1.89604,-3.48972 -4.24813,-3.48972c-3.67932,0 -8.07616,3.11051 -8.07616,6.60061m110.88308,0c0,1.62922 1.17318,3.44843 4.24814,3.44843c3.94041,0 8.07615,-3.22327 8.07615,-6.55932c0,-2.2397 -1.89604,-3.48972 -4.24813,-3.48972c-3.67932,0 -8.07616,3.11051 -8.07616,6.60061m-83.87017,0c0,1.62922 1.17317,3.44843 4.24813,3.44843c3.94041,0 8.07616,-3.22327 8.07616,-6.55932c0,-2.2397 -1.89605,-3.48972 -4.24814,-3.48972c-3.67932,0 -8.07615,3.11051 -8.07615,6.60061m150.67942,9.48061c0,1.62922 1.1731,3.44843 4.2481,3.44843c3.9404,0 8.0762,-3.22328 8.0762,-6.55932c0,-2.23971 -1.8961,-3.48972 -4.2482,-3.48972c-3.6793,0 -8.0761,3.11051 -8.0761,6.60061"/>
	<path class="Clef" d="m13.13826,61.81255c0,2.50634 1.89605,5.80664 7.01537,5.80664c1.78346,0 3.34178,-0.45623 4.70454,-1.2917c2.05012,-1.43978 2.57745,-3.94612 2.57745,-6.33396c0,-1.47536 -0.22514,-3.1818 -0.60435,-5.34446c-0.11259,-0.75842 -0.34368,-1.89605 -0.56881,-3.37735c3.71503,-1.21465 6.48208,-5.08375 6.48208,-8.98844c0,-5.72369 -4.05871,-9.5928 -9.59281,-9.5928c-0.37921,-2.27525 -0.75842,-4.51497 -1.06057,-6.63616c3.98169,-4.21278 6.74871,-8.95289 6.74871,-14.97875c0,-3.45437 -1.06058,-6.25695 -1.67087,-7.62552c-0.90654,-1.93169 -2.00863,-3.25892 -2.69004,-3.25892c-0.26662,0 -1.43978,0.45619 -2.68999,1.93169c-2.42933,2.88541 -3.11069,7.7381 -3.11069,10.9199c0,2.05008 0.1896,3.91059 0.83543,8.1589c-0.0415,0.0356 -2.01454,2.04417 -2.80853,2.69004c-3.45433,3.1877 -8.23001,7.80931 -8.23001,15.39943c0,7.08648 6.17993,12.66203 13.23678,12.66203c1.09615,0 2.12118,-0.11259 2.99219,-0.26663c0.72285,3.64394 1.17911,6.2984 1.17911,8.30703c0,3.94617 -2.05012,6.03181 -5.87774,6.03181c-0.91249,0 -1.70644,-0.1896 -1.78349,-0.1896c-0.0355,-0.0415 -0.11255,-0.077 -0.11255,-0.11258c0,-0.077 0.077,-0.11851 0.1896,-0.11851c1.78346,-0.30219 3.561,-1.81902 3.561,-4.2424c0,-2.05012 -1.5524,-4.21278 -4.39647,-4.21278c-2.65446,0 -4.32533,2.16267 -4.32533,4.66309m7.92782,-50.6244c0.34367,-1.51684 2.08564,-5.49853 4.05874,-5.49853c0.56882,0 1.47536,1.81899 1.47536,4.47345c0,3.94617 -2.91517,6.90282 -5.5341,9.48023c-0.22514,-1.51684 -0.41475,-2.99219 -0.41475,-4.58604c0,-1.40425 0.11259,-2.69595 0.41475,-3.86911m3.33586,38.98151c-0.75842,0.15403 -1.47536,0.23105 -2.19824,0.23105c-5.42147,0 -10.04902,-3.79209 -10.04902,-9.52169c0,-4.62163 3.25883,-8.75735 6.60061,-11.64291c0.63991,-0.56881 1.25021,-1.09614 1.81903,-1.66495c0.33772,2.04416 0.60434,3.82762 0.87096,5.38594c-3.45433,1.02504 -5.80068,4.66309 -5.80068,8.23003c0,2.65446 2.08565,6.2925 5.11932,6.2925c0.30216,0 0.64583,-0.15404 0.64583,-0.4918c0,-0.34364 -0.37921,-0.53324 -0.83543,-0.83544c-1.48131,-0.91247 -2.31674,-1.89604 -2.31674,-3.75654c0,-2.3108 1.74792,-4.17131 3.94612,-4.69864l2.19824,12.47245m5.38594,-7.01539c0,2.69594 -1.10206,5.46298 -3.79209,6.56508c-0.79395,-4.55053 -1.81899,-10.58232 -2.08565,-12.25323c3.41288,0 5.87774,2.31674 5.87774,5.68815"/>
	<path class="KeySig" d="m46.77222,27.00234c-1.89604,0 -2.99812,1.17318 -3.18773,1.40407l0.15406,-12.17635c0,-0.302 -0.22516,-0.52715 -0.53326,-0.52715l-0.45032,0c-0.3081,0 -0.53326,0.22515 -0.53326,0.52715l0.18961,22.7942c0,0.30238 0.22515,0.52753 0.53326,0.52753c0.0711,0 0.22515,-0.0356 0.30237,-0.0711c3.25883,-1.63534 6.67171,-4.74011 6.67171,-8.65071c0,-1.96714 -0.90635,-3.82764 -3.14644,-3.82764m-3.30011,10.69469l0.11277,-7.39457c0.0772,-0.34366 0.64603,-1.44 2.16286,-1.44c1.3689,0 1.48129,1.28594 1.48129,2.08564c0,3.3716 -1.25001,4.77567 -3.75654,6.74855m13.84075,-24.91464c-1.89605,0 -2.99812,1.17317 -3.18773,1.40406l0.15405,-12.17635c0,-0.30199 -0.22515,-0.52715 -0.53326,-0.52715l-0.45031,0c-0.30811,0 -0.53326,0.22516 -0.53326,0.52715l0.1896,22.79421c0,0.30237 0.22516,0.52752 0.53327,0.52752c0.0711,0 0.22515,-0.0356 0.30237,-0.0711c3.25883,-1.63534 6.67171,-4.74011 6.67171,-8.6507c0,-1.96715 -0.90636,-3.82764 -3.14644,-3.82764m-3.30012,10.69468l0.11277,-7.39457c0.0772,-0.34366 0.64603,-1.44 2.16287,-1.44c1.3689,0 1.48129,1.28594 1.48129,2.08565c0,3.37159 -1.25002,4.77566 -3.75654,6.74854m13.84036,8.26615c-1.89604,0 -2.99812,1.17317 -3.18773,1.40406l0.15406,-12.17635c0,-0.30199 -0.22516,-0.52715 -0.53326,-0.52715l-0.45032,0c-0.3081,0 -0.53326,0.22516 -0.53326,0.52715l0.18961,22.79421c0,0.30237 0.22515,0.52752 0.53326,0.52752c0.0711,0 0.22515,-0.0356 0.30237,-0.0711c3.25883,-1.63534 6.67171,-4.74011 6.67171,-8.6507c0,-1.96715 -0.90635,-3.82764 -3.14644,-3.82764m-3.30011,10.69468l0.11277,-7.39457c0.0772,-0.34366 0.64603,-1.44 2.16286,-1.44c1.3689,0 1.48129,1.28594 1.48129,2.08565c0,3.37159 -1.25001,4.77566 -3.75654,6.74854"/>
	<path class="TimeSig" d="m90.77499,22.9851c1.89604,-0.72287 3.22328,-1.93733 3.22328,-4.02298c0,-0.33793 -0.11239,-4.62773 -6.63616,-4.62773c-6.52339,0 -6.33379,4.62773 -6.33379,4.62773l0.0356,0l-0.0356,0.0768c0,1.36279 1.10208,2.42931 2.46486,2.42931c1.36279,0 2.42931,-1.06652 2.42931,-2.42931c0,-1.10207 -0.83563,-2.16248 -1.89604,-2.38802c0.0355,-0.0417 0.0711,-0.0768 0.11276,-0.11277c0.52753,-0.37921 1.25002,-0.56881 1.97327,-0.56881c1.58794,0 3.29438,0.94802 3.29438,2.99239c0,2.38764 -1.77755,2.7313 -2.23397,2.80851c-0.45605,0.0772 -2.57725,0.22516 -3.03368,0.22516c-0.45604,0 -0.49159,0.53326 -0.49159,0.53326l0,0.75842c0,0 0.0711,0.41476 0.49198,0.45643c0.64603,0.0356 1.51683,0.0356 2.73168,0.22515c1.66477,0.22516 2.53596,1.36278 2.53596,4.01725c0,2.54169 -1.70644,3.22327 -3.29438,3.22327c-1.06653,0 -2.0501,-0.30237 -2.46486,-0.60436c1.25002,-0.0768 2.27526,-1.17318 2.27526,-2.42931c0,-1.36278 -1.06653,-2.46486 -2.42931,-2.46486c-1.36278,0 -2.46486,1.10208 -2.46486,2.46486c0,3.11051 2.84407,4.66901 5.65258,4.66901c3.63804,0 7.58418,-1.25613 7.58418,-5.38614c0,-2.76685 -1.89604,-3.94615 -3.56693,-4.47329l0.0768,0m1.42739,18.59882c1.25001,-0.94802 2.1212,-2.16248 2.1212,-3.67932c0,-2.7313 -2.992,-4.96527 -6.67171,-4.96527c-3.6797,0 -6.67782,2.23397 -6.67782,4.96527c0,1.51684 0.37921,2.87962 2.16248,4.01725c-1.70644,0.98969 -2.65446,2.39375 -2.65446,4.21258c0,3.06922 3.22328,5.53408 7.16942,5.53408c3.94003,0 7.1633,-2.46486 7.1633,-5.53408c0,-1.81883 -0.63991,-3.52527 -2.61279,-4.55051m-2.12732,-1.02485c-2.57763,-0.83526 -5.42169,-2.08565 -5.42169,-3.79209c0,-1.48129 1.36278,-2.08565 2.99812,-2.08565c2.35209,0 3.94002,1.10207 3.94002,2.84406c0,1.81883 -0.82951,2.69002 -1.51683,3.03368m-2.42319,8.98824c-2.42931,0 -4.51496,-1.32723 -4.51496,-3.45416c0,-2.53596 1.97288,-3.14644 1.97288,-3.14644c2.57763,0.87118 6.25695,2.16248 6.25695,4.24813c0,1.02486 -1.29168,2.35209 -3.71487,2.35209"/>
	<path class="Rest" d="m374.51102,25.18343c-0.036,0 -0.1125,-0.0415 -0.154,-0.0415c-0.2252,0 -0.4148,0.1185 -0.4918,0.30811c-0.871,1.74201 -2.69,4.09428 -4.7401,4.47349c0.4148,-0.49178 0.6814,-1.10206 0.6814,-1.81903c0,-1.48127 -1.2147,-2.69591 -2.69,-2.69591c-1.5169,0 -2.7315,1.21464 -2.7315,2.69591c0,2.04419 2.0086,2.99221 3.7921,2.99221c2.0086,0 3.3358,-0.94802 4.6275,-2.3523l-4.3253,13.50341l1.025,0.30219l5.3089,-16.72077c0.042,-0.0414 0.042,-0.1185 0.042,-0.1896c0,-0.18961 -0.1185,-0.34364 -0.3437,-0.45623"/>
	<path class="Hook" d="m297.3446,23.14057l10.96151,2.84407l0,-4.74012l-10.96151,-2.84406l0,4.74011m-127.94443,-4.74011l10.96151,2.84406l0,-4.74011l-10.96151,-2.84407l0,4.74012m-45.843,23.70056l10.96151,2.84407l0,-4.74012l-10.96151,-2.84406l0,4.74011m139.66474,-26.07062l10.96151,2.84407l0,-4.74012l-10.96151,-2.84406l0,4.74011m83.87021,11.85028l10.9615,2.84407l0,-4.74011l-10.9615,-2.84407l0,4.74011m-133.61807,-9.48022l10.96151,2.84406l0,-4.74011l-10.96151,-2.84407l0,4.74012m66.80921,0l10.96151,2.84406l0,-4.74011l-10.96151,-2.84407l0,4.74012m-83.87056,0l10.96151,2.84406l0,-4.74011l-10.96151,-2.84407l0,4.74012m0,7.12813l10.96151,2.84407l0,-4.74011l-10.96151,-2.84407l0,4.74011"/>
	<path class="NoteDot" d="m176.68112,37.6202c0,1.0606 0.83545,1.89604 1.89605,1.89604c1.0606,0 1.89604,-0.83544 1.89604,-1.89604c0,-1.0606 -0.83544,-1.89605 -1.89604,-1.89605c-1.0606,0 -1.89605,0.83545 -1.89605,1.89605"/>
</svg>
