<svg xmlns="http://www.w3.org/2000/svg" version="1.2" viewBox="0 0 132 59">
  <title>A bar of musical notation depicts two short, sharp notes.</title>
  <path fill="none" stroke="#000" stroke-linejoin="bevel" stroke-width="2.73" d="m1.365,12.09204l129.763,0m-129.763,8.23548l129.763,0m-129.763,8.23549l129.763,0m-129.763,8.23548l129.763,0m-129.763,8.23548l129.763,0" class="StaffLines"/>
  <path fill="none" stroke="#000" stroke-linejoin="bevel" stroke-width="4.46" d="m128.8958,11.80828l0,33.84783" class="BarLine"/>
  <path d="m48.64963,41.57507c0.2009,-0.0309 0.36561,-0.26267 0.36561,-0.46325l0,-1.94032c0,-0.32942 -0.23178,-0.46324 -0.53032,-0.46324l-1.08622,0.23146l0,-4.91041l-0.92151,0l0,5.106l-2.93389,0.59707l0,-4.64773l-0.92151,0l0,4.84332l-1.2868,0.26268c-0.19559,0.0359 -0.3603,0.26234 -0.3603,0.46324l0,1.90977c0,0.3603 0.26267,0.46325 0.56121,0.46325l1.08622,-0.23179l0,5.43542l-1.2868,0.26267c-0.19559,0.0309 -0.3603,0.26267 -0.3603,0.46324l0,1.90944c0,0.3603 0.26267,0.45827 0.56121,0.45827l1.08622,-0.22648l0,4.90509l0.92151,0l0,-5.106l2.93389,-0.59209l0,4.64807l0.92151,0l0,-4.84333l1.25093,-0.23179c0.20091,-0.0359 0.36562,-0.26234 0.36562,-0.46324l0,-1.94065c0,-0.32942 -0.23179,-0.46325 -0.53033,-0.46325l-1.08622,0.23179l0,-5.43542l1.25093,-0.23146m-5.106,1.01914l2.93389,-0.59209l0,5.43542l-2.93389,0.62796l0,-5.47162m37.48374,-5.13688c0.20091,-0.0309 0.36562,-0.26267 0.36562,-0.46325l0,-1.94032c0,-0.32942 -0.23179,-0.46324 -0.53033,-0.46324l-1.08622,0.23145l0,-4.9104l-0.92151,0l0,5.106l-2.93389,0.59707l0,-4.64774l-0.92151,0l0,4.84333l-1.2868,0.26267c-0.19559,0.0359 -0.3603,0.26234 -0.3603,0.46325l0,1.90977c0,0.3603 0.26267,0.46324 0.56121,0.46324l1.08622,-0.23178l0,5.43541l-1.28679,0.26268c-0.1956,0.0309 -0.36031,0.26267 -0.36031,0.46324l0,1.90944c0,0.3603 0.26268,0.45826 0.56121,0.45826l1.08622,-0.22647l0,4.90509l0.92151,0l0,-5.106l2.93389,-0.59209l0,4.64807l0.92152,0l0,-4.84333l1.25093,-0.23179c0.2009,-0.0359 0.36561,-0.26234 0.36561,-0.46324l0,-1.94066c0,-0.32942 -0.23179,-0.46324 -0.53032,-0.46324l-1.08622,0.23179l0,-5.43542l1.25093,-0.23146m-5.106,1.01914l2.93389,-0.59209l0,5.43542l-2.93389,0.62795l0,-5.47161" class="Accidental"/>
  <path fill="none" stroke="#000" stroke-linejoin="bevel" stroke-width="2.48" d="m60.55066,43.9038l0,-23.22407m32.3784,19.10632l0,-23.05935" class="Stem"/>
  <path d="m51.07146,46.41873c0,1.41564 1.01914,2.99566 3.69036,2.99566c3.42304,0 7.01577,-2.80007 7.01577,-5.69809c0,-1.94564 -1.6471,-3.03153 -3.69036,-3.03153c-3.19623,0 -7.01577,2.70211 -7.01577,5.73396m32.3784,-4.11774c0,1.41564 1.01914,2.99566 3.69036,2.99566c3.42304,0 7.01577,-2.80007 7.01577,-5.6981c0,-1.94563 -1.6471,-3.03152 -3.69036,-3.03152c-3.19623,0 -7.01577,2.7021 -7.01577,5.73396" class="Note"/>
  <path d="m11.59245,53.6967c0,2.17727 1.6471,5.04424 6.09427,5.04424c1.54929,0 2.90301,-0.39633 4.08685,-1.1221c1.78094,-1.25074 2.23903,-3.42801 2.23903,-5.50233c0,-1.28164 -0.19558,-2.76403 -0.525,-4.64274c-0.0978,-0.65884 -0.29855,-1.6471 -0.49413,-2.93391c3.22726,-1.05517 5.631,-4.41627 5.631,-7.80828c0,-4.97218 -3.52581,-8.33329 -8.33329,-8.33329c-0.32942,-1.97652 -0.65884,-3.92217 -0.92132,-5.76484c3.4589,-3.65966 5.86261,-7.7774 5.86261,-13.01208c0,-3.00082 -0.92132,-5.43543 -1.45149,-6.6243c-0.78751,-1.67806 -1.7449,-2.83104 -2.33683,-2.83104c-0.23162,0 -1.25075,0.3963 -2.33681,1.67807c-2.11036,2.50655 -2.70226,6.7221 -2.70226,9.48613c0,1.78091 0.16471,3.39714 0.72574,7.08767c-0.036,0.0309 -1.75004,1.77577 -2.43978,2.33683c-3.00078,2.76917 -7.14943,6.78397 -7.14943,13.37752c0,6.15605 5.36852,10.99954 11.49882,10.99954c0.95223,0 1.84268,-0.0978 2.59932,-0.23161c0.62794,3.16549 1.0243,5.47143 1.0243,7.21633c0,3.42804 -1.78094,5.23985 -5.10601,5.23985c-0.79268,0 -1.48238,-0.16471 -1.54932,-0.16471c-0.0309,-0.036 -0.0978,-0.0669 -0.0978,-0.0978c0,-0.0669 0.0669,-0.10294 0.16471,-0.10294c1.5493,-0.26252 3.09345,-1.58019 3.09345,-3.68538c0,-1.78094 -1.34858,-3.65966 -3.81923,-3.65966c-2.30593,0 -3.75742,1.87871 -3.75742,4.05084m6.88691,-43.97752c0.29855,-1.31768 1.81181,-4.77659 3.52585,-4.77659c0.49413,0 1.28164,1.58016 1.28164,3.8861c0,3.42804 -2.53242,5.99649 -4.80748,8.23549c-0.19558,-1.31768 -0.36029,-2.59932 -0.36029,-3.9839c0,-1.21988 0.0978,-2.34198 0.36029,-3.3611m2.89787,33.86332c-0.65884,0.13381 -1.28164,0.20072 -1.90962,0.20072c-4.70964,0 -8.72961,-3.2942 -8.72961,-8.27152c0,-4.01482 2.83096,-7.60753 5.73397,-10.11422c0.55589,-0.49413 1.08606,-0.95222 1.58019,-1.44635c0.29338,1.77577 0.525,3.32506 0.75661,4.67878c-3.00078,0.89045 -5.03906,4.05084 -5.03906,7.14944c0,2.30594 1.81181,5.46631 4.44716,5.46631c0.26249,0 0.56104,-0.13381 0.56104,-0.42722c0,-0.29852 -0.32942,-0.46323 -0.72575,-0.72575c-1.28681,-0.79266 -2.01255,-1.64709 -2.01255,-3.26331c0,-2.0074 1.51842,-3.62363 3.428,-4.08173l1.90962,10.83485m4.67878,-6.09428c0,2.34197 -0.95736,4.7457 -3.2942,5.70309c-0.68971,-3.95305 -1.58016,-9.19288 -1.81181,-10.6444c2.96478,0 5.10601,2.01256 5.10601,4.94131" class="Clef"/>
  <path d="m115.76368,21.87684c-0.0309,0 -0.0978,-0.036 -0.13381,-0.036c-0.19561,0 -0.36032,0.10295 -0.42723,0.26766c-0.75664,1.51328 -2.3368,3.55672 -4.11774,3.88614c0.36032,-0.42722 0.59193,-0.95737 0.59193,-1.5802c0,-1.28678 -1.05516,-2.34195 -2.33683,-2.34195c-1.31767,0 -2.37285,1.05517 -2.37285,2.34195c0,1.77579 1.7449,2.59934 3.2942,2.59934c1.7449,0 2.89787,-0.82355 4.01994,-2.04345l-3.75742,11.73044l0.89045,0.26252l4.61187,-14.52537c0.036,-0.036 0.036,-0.10294 0.036,-0.16471c0,-0.16471 -0.10294,-0.29852 -0.29855,-0.39632" class="Rest"/>
  <path d="m59.26388,23.82026l9.52228,2.47065l0,-4.11774l-9.52228,-2.47065l0,4.11774m0,6.19222l9.52228,2.47065l0,-4.11774l-9.52228,-2.47065l0,4.11774m32.37841,-10.30996l9.52227,2.47065l0,-4.11775l-9.52227,-2.47064l0,4.11774" class="Hook"/>
</svg>
