<svg xmlns="http://www.w3.org/2000/svg" version="1.2" viewBox="0 0 1098 198">
  <title>Four bars of musical notation in 3/8 time depicts a simple melody.</title>
  <desc>
    Generated by MuseScore 4.0.2
  </desc>
  <title>Layer 1</title>
  <path fill="none" stroke="#000" stroke-linejoin="bevel" stroke-width="2.73" d="M54 50.104 1076.4 50.104M54 74.904 1076.4 74.904M54 99.704 1076.4 99.704M54 124.504 1076.4 124.504M54 149.304 1076.4 149.304" class="StaffLines"/>
  <path fill="none" stroke="#000" stroke-linejoin="bevel" stroke-width="4.46" d="M668.738 48.74 668.738 150.668M433.517 48.74 433.517 150.668M888.14 48.74 888.14 150.668" class="BarLine"/>
  <path d="M698.994 96.728c-4.96 0-7.843 3.069-8.339 3.673l.403-31.853c0-.79-.589-1.379-1.395-1.379l-1.178 0c-.806 0-1.395.589-1.395 1.379l.496 59.629c0 .791.589 1.38 1.395 1.38.186 0 .589-.093.791-.186 8.525-4.278 17.453-12.4 17.453-22.63 0-5.146-2.371-10.013-8.231-10.013m-8.633 27.977.295-19.344c.202-.899 1.69-3.767 5.658-3.767 3.581 0 3.875 3.364 3.875 5.456 0 8.82-3.27 12.493-9.827 17.654M918.396 133.928c-4.96 0-7.843 3.069-8.339 3.673l.403-31.853c0-.79-.589-1.379-1.395-1.379l-1.178 0c-.806 0-1.395.589-1.395 1.379l.496 59.629c0 .791.589 1.38 1.395 1.38.186 0 .589-.093.791-.186 8.525-4.278 17.453-12.4 17.453-22.63 0-5.146-2.371-10.013-8.231-10.013m-8.633 27.977.295-19.344c.202-.899 1.69-3.767 5.658-3.767 3.581 0 3.875 3.364 3.875 5.456 0 8.82-3.27 12.493-9.827 17.654" class="Accidental"/>
  <path fill="none" stroke="#000" stroke-linejoin="bevel" stroke-width="3.97" d="M339.882 174.104 388.482 174.104" class="LedgerLine"/>
  <path fill="none" stroke="#000" stroke-linejoin="bevel" stroke-width="2.48" d="M963.819 145.336 963.819 75.896M379.058 170.136 379.058 113.096M833.681 132.936 833.681 63.496M498.982 120.536 498.982 51.096M789.049 120.536 789.049 51.096M569.646 120.536 569.646 50.6M744.417 108.136 744.417 44.896M614.279 120.536 614.279 51.096" class="Stem"/>
  <path d="M713.424 116.274c0 4.262 3.069 9.021 11.113 9.021 10.308 0 21.127-8.432 21.127-17.159 0-5.859-4.96-9.129-11.113-9.129-9.625 0-21.127 8.137-21.127 17.267M583.286 128.673c0 4.262 3.069 9.021 11.113 9.021 10.308 0 21.127-8.432 21.127-17.159 0-5.859-4.96-9.129-11.113-9.129-9.625 0-21.127 8.137-21.127 17.267M802.689 141.074c0 4.262 3.069 9.021 11.113 9.021 10.308 0 21.127-8.432 21.127-17.159 0-5.859-4.96-9.129-11.113-9.129-9.625 0-21.127 8.137-21.127 17.267M348.066 178.274c0 4.262 3.069 9.021 11.113 9.021 10.308 0 21.127-8.432 21.127-17.159 0-5.859-4.96-9.129-11.113-9.129-9.625 0-21.127 8.137-21.127 17.267M467.989 128.673c0 4.262 3.069 9.021 11.113 9.021 10.308 0 21.127-8.432 21.127-17.159 0-5.859-4.96-9.129-11.113-9.129-9.625 0-21.127 8.137-21.127 17.267M758.056 128.673c0 4.262 3.069 9.021 11.113 9.021 10.308 0 21.127-8.432 21.127-17.159 0-5.859-4.96-9.129-11.113-9.129-9.625 0-21.127 8.137-21.127 17.267M538.654 128.673c0 4.262 3.069 9.021 11.113 9.021 10.308 0 21.127-8.432 21.127-17.159 0-5.859-4.96-9.129-11.113-9.129-9.625 0-21.127 8.137-21.127 17.267M932.827 153.474c0 4.262 3.069 9.021 11.113 9.021 10.308 0 21.127-8.432 21.127-17.159 0-5.859-4.96-9.129-11.113-9.129-9.625 0-21.127 8.137-21.127 17.267" class="Note"/>
  <path d="m84.79852,175.39052c0,6.55652 4.96,15.19 18.352,15.19c4.66548,0 8.742,-1.19348 12.30695,-3.37905c5.36305,-3.76643 6.74252,-10.32295 6.74252,-16.56947c0,-3.85948 -0.58895,-8.32348 -1.58095,-13.98095c-0.29452,-1.984 -0.89905,-4.96 -1.488,-8.83505c9.71843,-3.17748 16.95695,-13.29895 16.95695,-23.5135c0,-14.97302 -10.61748,-25.09449 -25.09452,-25.09449c-0.992,-5.952 -1.984,-11.81105 -2.77443,-17.36c10.416,-11.02052 17.65443,-23.42052 17.65443,-39.184c0,-9.03652 -2.77443,-16.368 -4.37095,-19.94813c-2.37148,-5.05325 -5.25452,-8.52525 -7.03705,-8.52525c-0.69748,0 -3.76643,1.19338 -7.03695,5.05325c-6.35505,7.54813 -8.13748,20.24265 -8.13748,28.56613c0,5.36295 0.496,10.23 2.18548,21.34347c-0.10852,0.09305 -5.27,5.34748 -7.34705,7.03705c-9.03643,8.33895 -21.52947,20.42895 -21.52947,40.28447c0,18.53805 16.16652,33.12352 34.62705,33.12352c2.86748,0 5.54895,-0.29452 7.82748,-0.69748c1.89095,9.53243 3.08452,16.47643 3.08452,21.73095c0,10.32305 -5.36305,15.77905 -15.376,15.77905c-2.38705,0 -4.464,-0.496 -4.66557,-0.496c-0.09295,-0.10852 -0.29443,-0.20157 -0.29443,-0.29452c0,-0.20148 0.20148,-0.31 0.496,-0.31c4.66548,-0.79052 9.31548,-4.75852 9.31548,-11.098c0,-5.36305 -4.06105,-11.02052 -11.50105,-11.02052c-6.944,0 -11.31495,5.65748 -11.31495,12.19852m20.73895,-132.432c0.89905,-3.968 5.456,-14.384 10.61757,-14.384c1.488,0 3.85948,4.75843 3.85948,11.70243c0,10.32305 -7.626,18.05757 -14.47705,24.8c-0.58895,-3.968 -1.08495,-7.82748 -1.08495,-11.99695c0,-3.67348 0.29452,-7.05252 1.08495,-10.12148m8.72652,101.97452c-1.984,0.40295 -3.85948,0.60443 -5.75052,0.60443c-14.18243,0 -26.28797,-9.92 -26.28797,-24.90847c0,-12.09005 8.52502,-22.909 17.26702,-30.45752c1.674,-1.488 3.27052,-2.86748 4.75852,-4.35548c0.88348,5.34748 1.58095,10.01295 2.27843,14.08947c-9.03643,2.68148 -15.17443,12.19852 -15.17443,21.52952c0,6.944 5.456,16.461 13.392,16.461c0.79043,0 1.68948,-0.40295 1.68948,-1.28652c0,-0.89895 -0.992,-1.39495 -2.18548,-2.18548c-3.87505,-2.387 -6.06052,-4.96 -6.06052,-9.827c0,-6.045 4.57252,-10.91205 10.32295,-12.29152l5.75052,32.62757m14.08947,-18.35205c0,7.0525 -2.88295,14.291 -9.92,17.17405c-2.07695,-11.90405 -4.75843,-27.68305 -5.456,-32.0541c8.928,0 15.376,6.06054 15.376,14.88005" class="Clef"/>
  <path d="M172.784 84.328c-4.96 0-7.843 3.069-8.339 3.673l.403-31.853c0-.79-.589-1.379-1.395-1.379l-1.178 0c-.806 0-1.395.589-1.395 1.379l.496 59.629c0 .791.589 1.38 1.395 1.38.186 0 .589-.093.791-.186 8.525-4.278 17.453-12.4 17.453-22.63 0-5.146-2.371-10.013-8.231-10.013m-8.633 27.977.295-19.344c.202-.899 1.69-3.767 5.658-3.767 3.581 0 3.875 3.364 3.875 5.456 0 8.82-3.27 12.493-9.827 17.654M200.359 47.128c-4.96 0-7.843 3.069-8.339 3.673l.403-31.853c0-.79-.589-1.379-1.395-1.379l-1.178 0c-.806 0-1.395.589-1.395 1.379l.496 59.629c0 .791.589 1.38 1.395 1.38.186 0 .589-.093.791-.186 8.525-4.278 17.453-12.4 17.453-22.63 0-5.146-2.371-10.013-8.231-10.013m-8.633 27.977.295-19.344c.202-.899 1.69-3.767 5.658-3.767 3.581 0 3.875 3.364 3.875 5.456 0 8.82-3.27 12.493-9.827 17.654M227.933 96.728c-4.96 0-7.843 3.069-8.339 3.673l.403-31.853c0-.79-.589-1.379-1.395-1.379l-1.178 0c-.806 0-1.395.589-1.395 1.379l.496 59.629c0 .791.589 1.38 1.395 1.38.186 0 .589-.093.791-.186 8.525-4.278 17.453-12.4 17.453-22.63 0-5.146-2.371-10.013-8.231-10.013m-8.633 27.977.295-19.344c.202-.899 1.69-3.767 5.658-3.767 3.581 0 3.875 3.364 3.875 5.456 0 8.82-3.27 12.493-9.827 17.654" class="KeySig"/>
  <path d="M287.894 73.819c4.96-1.891 8.432-5.068 8.432-10.524 0-.884-.294-12.106-17.36-12.106-17.065 0-16.569 12.106-16.569 12.106l.093 0-.093.201c0 3.565 2.883 6.355 6.448 6.355 3.565 0 6.355-2.79 6.355-6.355 0-2.883-2.186-5.657-4.96-6.247.093-.109.186-.201.295-.295 1.38-.992 3.27-1.488 5.162-1.488 4.154 0 8.618 2.48 8.618 7.828 0 6.246-4.65 7.145-5.844 7.347-1.193.202-6.742.589-7.936.589-1.193 0-1.286 1.395-1.286 1.395l0 1.984c0 0 .186 1.085 1.287 1.194 1.69.093 3.968.093 7.146.589 4.355.589 6.634 3.565 6.634 10.509 0 6.649-4.464 8.432-8.618 8.432-2.79 0-5.363-.791-6.448-1.581 3.27-.201 5.952-3.069 5.952-6.355 0-3.565-2.79-6.448-6.355-6.448-3.565 0-6.448 2.883-6.448 6.448 0 8.137 7.44 12.214 14.787 12.214 9.517 0 19.84-3.286 19.84-14.09 0-7.238-4.96-10.323-9.331-11.702l.201 0M291.63 122.473c3.27-2.48 5.549-5.657 5.549-9.625 0-7.145-7.827-12.989-17.453-12.989-9.626 0-17.469 5.844-17.469 12.989 0 3.968.992 7.533 5.657 10.509-4.464 2.589-6.944 6.262-6.944 11.02 0 8.029 8.432 14.477 18.755 14.477 10.307 0 18.739-6.448 18.739-14.477 0-4.758-1.674-9.222-6.835-11.904m-5.565-2.681c-6.743-2.185-14.183-5.456-14.183-9.92 0-3.875 3.565-5.456 7.843-5.456 6.153 0 10.307 2.883 10.307 7.44 0 4.758-2.17 7.037-3.968 7.936m-6.339 23.513c-6.355 0-11.811-3.472-11.811-9.036 0-6.634 5.161-8.231 5.161-8.231 6.743 2.279 16.368 5.657 16.368 11.113 0 2.681-3.379 6.153-9.718 6.153" class="TimeSig"/>
  <path d="m1030.1395,79.56978c-0.09295,0 -0.29443,-0.10852 -0.40295,-0.10852c-0.58905,0 -1.08505,0.31 -1.28652,0.806c-2.27852,4.55705 -7.03695,10.71054 -12.4,11.70254c1.08505,-1.2865 1.78252,-2.88297 1.78252,-4.75854c0,-3.87495 -3.17748,-7.05243 -7.03702,-7.05243c-3.968,0 -7.1455,3.17748 -7.1455,7.05243c0,5.34754 5.2545,7.82754 9.92,7.82754c5.25452,0 8.72652,-2.48 12.10548,-6.15354l-11.31495,35.32452l2.68148,0.79052l13.888,-43.74105c0.10852,-0.10843 0.10852,-0.31 0.10852,-0.496c0,-0.496 -0.31,-0.89895 -0.89905,-1.19348" class="Rest"/>
  <path d="m832.441 74.904 28.675 7.44 0-12.4-28.675-7.44 0 12.4M497.742 62.504l28.675 7.44 0-12.4-28.675-7.44 0 12.4M377.818 124.504l28.675 7.44 0-12.4-28.675-7.44 0 12.4M743.177 56.304l28.675 7.44 0-12.4-28.675-7.44 0 12.4M962.579 87.304l28.675 7.44 0-12.4-28.675-7.44 0 12.4M613.038 62.504l28.675 7.44 0-12.4-28.675-7.44 0 12.4M787.809 62.504l28.675 7.44 0-12.4-28.675-7.44 0 12.4M568.406 62.504l28.675 7.44 0-12.4-28.675-7.44 0 12.4m0 18.647 28.675 7.44 0-12.4-28.675-7.44 0 12.4" class="Hook"/>
  <path d="m512.62201,112.104c0,2.7745 2.1855,4.96 4.96,4.96c2.7745,0 4.96,-2.1855 4.96,-4.96c0,-2.7745 -2.1855,-4.96 -4.96,-4.96c-2.77449,0 -4.96,2.1855 -4.96,4.96" class="NoteDot"/>
</svg>
