<svg xmlns="http://www.w3.org/2000/svg" version="1.2" viewBox="0 0 414 198">
  <title>A bar of musical notation depicts two short, sharp notes.</title>
  <desc>
    Generated by MuseScore 4.0.2
  </desc>
  <title>Layer 1</title>
  <path fill="none" stroke="#000" stroke-linejoin="bevel" stroke-width="2.73" d="M12.4 49.6 403.163 49.6M12.4 74.4 403.163 74.4M12.4 99.2 403.163 99.2M12.4 124 403.163 124M12.4 148.8 403.163 148.8" class="StaffLines"/>
  <path fill="none" stroke="#000" stroke-linejoin="bevel" stroke-width="4.46" d="M400.931 48.236 400.931 150.164" class="BarLine"/>
  <path d="M154.791 138.384c.605-.093 1.101-.791 1.101-1.395l0-5.843c0-.992-.698-1.395-1.597-1.395l-3.271.697 0-14.787-2.775 0 0 15.376-8.835 1.798 0-13.996-2.775 0 0 14.585-3.875.791c-.589.108-1.085.79-1.085 1.395l0 5.751c0 1.085.791 1.395 1.69 1.395l3.271-.698 0 16.368-3.875.791c-.589.093-1.085.791-1.085 1.395l0 5.75c0 1.085.791 1.38 1.69 1.38l3.271-.682 0 14.771 2.775 0 0-15.376 8.835-1.783 0 13.997 2.775 0 0-14.585 3.767-.698c.605-.108 1.101-.79 1.101-1.395l0-5.844c0-.992-.698-1.395-1.597-1.395l-3.271.698 0-16.368 3.767-.697m-15.376 3.069 8.835-1.783 0 16.368-8.835 1.891 0-16.477M252.294 125.984c.605-.093 1.101-.791 1.101-1.395l0-5.843c0-.992-.698-1.395-1.597-1.395l-3.271.697 0-14.787-2.775 0 0 15.376-8.835 1.798 0-13.996-2.775 0 0 14.585-3.875.791c-.589.108-1.085.79-1.085 1.395l0 5.751c0 1.085.791 1.395 1.69 1.395l3.271-.698 0 16.368-3.875.791c-.589.093-1.085.791-1.085 1.395l0 5.75c0 1.085.791 1.38 1.69 1.38l3.271-.682 0 14.771 2.775 0 0-15.376 8.835-1.783 0 13.997 2.775 0 0-14.585 3.767-.698c.605-.108 1.101-.79 1.101-1.395l0-5.844c0-.992-.698-1.395-1.597-1.395l-3.271.698 0-16.368 3.767-.697m-15.376 3.069 8.835-1.783 0 16.368-8.835 1.891 0-16.477" class="Accidental"/>
  <path fill="none" stroke="#000" stroke-linejoin="bevel" stroke-width="2.48" d="M193.076 144.832 193.076 74.896M290.579 132.432 290.579 62.992" class="Stem"/>
  <path d="M162.084 152.97c0 4.263 3.069 9.021 11.113 9.021 10.308 0 21.127-8.432 21.127-17.159 0-5.859-4.96-9.129-11.113-9.129-9.625 0-21.127 8.137-21.127 17.267M259.587 140.57c0 4.263 3.069 9.021 11.113 9.021 10.308 0 21.127-8.432 21.127-17.159 0-5.859-4.96-9.129-11.113-9.129-9.625 0-21.127 8.137-21.127 17.267" class="Note"/>
  <path d="m43.19854,174.88658c0,6.55653 4.96,15.19002 18.35202,15.19002c4.66548,0 8.74201,-1.19348 12.30696,-3.37905c5.36305,-3.76643 6.74253,-10.32296 6.74253,-16.56949c0,-3.85948 -0.58895,-8.32348 -1.58095,-13.98096c-0.29453,-1.984 -0.89905,-4.96 -1.488,-8.83506c9.71844,-3.17748 16.95697,-13.29896 16.95697,-23.51353c0,-14.97303 -10.61749,-25.09452 -25.09455,-25.09452c-0.992,-5.95201 -1.984,-11.81106 -2.77443,-17.36002c10.41601,-11.02054 17.65444,-23.42055 17.65444,-39.18404c0,-9.03653 -2.77443,-16.36802 -4.37095,-19.94815c-2.37148,-5.05325 -5.25453,-8.52526 -7.03706,-8.52526c-0.69748,0 -3.76643,1.19338 -7.03696,5.05325c-6.35506,7.54814 -8.13748,20.24267 -8.13748,28.56616c0,5.36296 0.496,10.23001 2.18548,21.3435c-0.10852,0.09305 -5.27001,5.34748 -7.34706,7.03706c-9.03643,8.33896 -21.5295,20.42897 -21.5295,40.28452c0,18.53807 16.16654,33.12356 34.62708,33.12356c2.86748,0 5.54896,-0.29453 7.82748,-0.69748c1.89095,9.53244 3.08453,16.47644 3.08453,21.73097c0,10.32306 -5.36305,15.77907 -15.37602,15.77907c-2.38705,0 -4.464,-0.496 -4.66558,-0.496c-0.09295,-0.10852 -0.29443,-0.20157 -0.29443,-0.29453c0,-0.20148 0.20148,-0.31 0.496,-0.31c4.66548,-0.79053 9.31548,-4.75853 9.31548,-11.09801c0,-5.36305 -4.06105,-11.02054 -11.50106,-11.02054c-6.94401,0 -11.31496,5.65748 -11.31496,12.19854m20.73897,-132.43213c0.89905,-3.968 5.45601,-14.38401 10.61759,-14.38401c1.488,0 3.85948,4.75843 3.85948,11.70244c0,10.32306 -7.62601,18.05759 -14.47706,24.80002c-0.58895,-3.968 -1.08495,-7.82748 -1.08495,-11.99696c0,-3.67348 0.29453,-7.05253 1.08495,-10.12149m8.72653,101.97463c-1.984,0.40295 -3.85948,0.60443 -5.75053,0.60443c-14.18244,0 -26.288,-9.92001 -26.288,-24.9085c0,-12.09006 8.52503,-22.90902 17.26704,-30.45756c1.674,-1.488 3.27053,-2.86748 4.75853,-4.35548c0.88348,5.34748 1.58095,10.01296 2.27843,14.08949c-9.03643,2.68148 -15.17444,12.19854 -15.17444,21.52955c0,6.94401 5.45601,16.46102 13.39201,16.46102c0.79043,0 1.68948,-0.40295 1.68948,-1.28653c0,-0.89895 -0.992,-1.39495 -2.18548,-2.18548c-3.87505,-2.387 -6.06053,-4.96 -6.06053,-9.82701c0,-6.04501 4.57253,-10.91206 10.32296,-12.29154l5.75053,32.62761m14.08949,-18.35207c0,7.05251 -2.88295,14.29101 -9.92001,17.17407c-2.07695,-11.90406 -4.75843,-27.68308 -5.45601,-32.05413c8.92801,0 15.37602,6.06055 15.37602,14.88006" class="Clef"/>
  <path d="m356.89551,79.06556c-0.09295,0 -0.29443,-0.10852 -0.40295,-0.10852c-0.58905,0 -1.08505,0.31 -1.28653,0.806c-2.27853,4.55705 -7.03696,10.71056 -12.40001,11.70256c1.08505,-1.2865 1.78253,-2.88297 1.78253,-4.75855c0,-3.87495 -3.17748,-7.05243 -7.03703,-7.05243c-3.968,0 -7.14551,3.17748 -7.14551,7.05243c0,5.34755 5.25451,7.82755 9.92001,7.82755c5.25453,0 8.72653,-2.48 12.10549,-6.15355l-11.31496,35.32456l2.68148,0.79053l13.88801,-43.74109c0.10852,-0.10843 0.10852,-0.31 0.10852,-0.496c0,-0.496 -0.31,-0.89895 -0.89905,-1.19348" class="Rest"/>
  <path d="m191.836 86.8 28.675 7.44 0-12.4-28.675-7.44 0 12.4m0 18.647 28.675 7.44 0-12.4-28.675-7.44 0 12.4M289.339 74.4l28.675 7.44 0-12.4-28.675-7.44 0 12.4" class="Hook"/>
</svg>
